version 1
nodes
0 "root" -1
end
skeleton
time 0
0 0 0 0 0 0 0
end
triangles
phys
0  -5.323376 -4.818002 -4.298813  0.006354 0.026398 0.999631  0.615241 0.349147 0
0  5.052724 5.292352 -4.631757  0.006354 0.026398 0.999631  0.337714 0.636463 0
0  -5.193034 5.424369 -4.570122  0.006354 0.026398 0.999631  0.337713 0.358609 0
phys
0  5.052724 5.292352 -4.631757  -0.993849 0.015552 0.109647  0.674966 0.302222 0
0  5.713720 -5.484676 2.888162  -0.993849 0.015552 0.109647  0.875200 0.000000 0
0  5.865710 6.458760 2.571794  -0.993849 0.015552 0.109647  0.875200 0.329376 0
phys
0  -5.323376 -4.818002 -4.298813  0.992266 -0.009349 0.123774  0.200939 0.369084 0
0  -6.081676 6.612703 2.643664  0.992266 -0.009349 0.123774  0.000000 0.678774 0
0  -6.233665 -5.330734 2.960033  0.992266 -0.009349 0.123774  0.000000 0.349404 0
phys
0  -5.193034 5.424369 -4.570122  -0.011747 -0.986865 0.161120  0.537907 0.662567 0
0  5.865710 6.458760 2.571794  -0.011747 -0.986865 0.161120  0.337713 0.965840 0
0  -6.081676 6.612703 2.643664  -0.011747 -0.986865 0.161120  0.337714 0.636463 0
phys
0  4.922382 -4.950019 -4.360447  0.013284 0.997308 0.072111  0.615241 0.657724 0
0  -6.233665 -5.330734 2.960033  0.013284 0.997308 0.072111  0.815523 0.349147 0
0  5.713720 -5.484676 2.888162  0.013284 0.997308 0.072111  0.815523 0.678524 0
phys
0  5.865710 6.458760 2.571794  -0.554753 0.029085 0.831507  0.345651 0.343331 0
0  5.945606 -5.723678 3.051227  -0.554753 0.029085 0.831507  0.674966 0.337650 0
0  6.103998 6.722912 2.721531  -0.554753 0.029085 0.831507  0.337713 0.349147 0
phys
0  -6.233665 -5.330734 2.960033  0.511717 0.016242 0.859001  0.669271 0.008298 0
0  -6.346707 6.883340 2.796429  0.511717 0.016242 0.859001  0.337713 0.011497 0
0  -6.505099 -5.563250 3.126126  0.511717 0.016242 0.859001  0.674966 0.000000 0
phys
0  -6.081676 6.612703 2.643664  -0.001109 -0.492384 0.870378  0.345651 0.019331 0
0  6.103998 6.722912 2.721531  -0.001109 -0.492384 0.870378  0.337713 0.349147 0
0  -6.346707 6.883340 2.796429  -0.001109 -0.492384 0.870378  0.337713 0.011497 0
phys
0  5.713720 -5.484676 2.888162  0.012301 0.571669 0.820392  0.669271 0.332299 0
0  -6.505099 -5.563250 3.126126  0.012301 0.571669 0.820392  0.674966 0.000000 0
0  5.945606 -5.723678 3.051227  0.012301 0.571669 0.820392  0.674966 0.337650 0
phys
0  -6.346707 6.883340 2.796429  -0.011626 -0.998471 -0.054035  0.912038 0.692392 0
0  6.055654 6.564986 6.010544  -0.011626 -0.998471 -0.054035  1.000000 0.350362 0
0  -6.580471 6.712600 6.001731  -0.011626 -0.998471 -0.054035  1.000000 0.698715 0
phys
0  5.945606 -5.723678 3.051227  0.012801 0.999825 -0.013646  0.815523 0.692400 0
0  -6.416334 -5.517718 6.545403  0.012801 0.999825 -0.013646  0.909714 0.351011 0
0  5.950373 -5.677064 6.471010  0.012801 0.999825 -0.013646  0.909714 0.691948 0
phys
0  6.103998 6.722912 2.721531  -0.999865 0.008061 -0.014310  0.200939 0.693861 0
0  5.950373 -5.677064 6.471010  -0.999865 0.008061 -0.014310  0.295090 0.349404 0
0  6.055654 6.564986 6.010544  -0.999865 0.008061 -0.014310  0.291270 0.687098 0
phys
0  -6.505099 -5.563250 3.126126  0.999584 0.012254 -0.026113  0.969021 0.001270 0
0  -6.580471 6.712600 6.001731  0.999584 0.012254 -0.026113  0.880590 0.337389 0
0  -6.416334 -5.517718 6.545403  0.999584 0.012254 -0.026113  0.875200 -0.000000 0
phys
0  -6.580471 6.712600 6.001731  -0.006583 -0.044496 -0.998988  0.337713 0.000000 0
0  5.950373 -5.677064 6.471010  -0.006583 -0.044496 -0.998988  0.000000 0.349404 0
0  -6.416334 -5.517718 6.545403  -0.006583 -0.044496 -0.998988  0.000316 0.008469 0
phys
0  -5.323376 -4.818002 -4.298813  0.006353 0.026398 0.999631  0.615241 0.349147 0
0  4.922382 -4.950019 -4.360447  0.006353 0.026398 0.999631  0.615241 0.627002 0
0  5.052724 5.292352 -4.631757  0.006353 0.026398 0.999631  0.337714 0.636463 0
phys
0  5.052724 5.292352 -4.631757  -0.993849 0.015552 0.109647  0.674966 0.302222 0
0  4.922382 -4.950019 -4.360447  -0.993849 0.015552 0.109647  0.674966 0.019758 0
0  5.713720 -5.484676 2.888162  -0.993849 0.015552 0.109647  0.875200 0.000000 0
phys
0  -5.323376 -4.818002 -4.298813  0.992266 -0.009349 0.123774  0.200939 0.369084 0
0  -5.193034 5.424369 -4.570122  0.992266 -0.009349 0.123774  0.200939 0.651542 0
0  -6.081676 6.612703 2.643664  0.992266 -0.009349 0.123774  0.000000 0.678774 0
phys
0  -5.193034 5.424369 -4.570122  -0.011747 -0.986865 0.161120  0.537907 0.662567 0
0  5.052724 5.292352 -4.631757  -0.011747 -0.986865 0.161120  0.537907 0.945031 0
0  5.865710 6.458760 2.571794  -0.011747 -0.986865 0.161120  0.337713 0.965840 0
phys
0  4.922382 -4.950019 -4.360447  0.013284 0.997308 0.072111  0.615241 0.657724 0
0  -5.323376 -4.818002 -4.298813  0.013284 0.997308 0.072111  0.615241 0.375260 0
0  -6.233665 -5.330734 2.960033  0.013284 0.997308 0.072111  0.815523 0.349147 0
phys
0  5.865710 6.458760 2.571794  -0.554751 0.029085 0.831508  0.345651 0.343331 0
0  5.713720 -5.484676 2.888162  -0.554751 0.029085 0.831508  0.669271 0.332299 0
0  5.945606 -5.723678 3.051227  -0.554751 0.029085 0.831508  0.674966 0.337650 0
phys
0  -6.233665 -5.330734 2.960033  0.511717 0.016242 0.859001  0.669271 0.008298 0
0  -6.081676 6.612703 2.643664  0.511717 0.016242 0.859001  0.345651 0.019331 0
0  -6.346707 6.883340 2.796429  0.511717 0.016242 0.859001  0.337713 0.011497 0
phys
0  -6.081676 6.612703 2.643664  -0.001109 -0.492382 0.870379  0.345651 0.019331 0
0  5.865710 6.458760 2.571794  -0.001109 -0.492382 0.870379  0.345651 0.343331 0
0  6.103998 6.722912 2.721531  -0.001109 -0.492382 0.870379  0.337713 0.349147 0
phys
0  5.713720 -5.484676 2.888162  0.012301 0.571670 0.820392  0.669271 0.332299 0
0  -6.233665 -5.330734 2.960033  0.012301 0.571670 0.820392  0.669271 0.008298 0
0  -6.505099 -5.563250 3.126126  0.012301 0.571670 0.820392  0.674966 0.000000 0
phys
0  -6.346707 6.883340 2.796429  -0.013159 -0.998753 -0.048150  0.912038 0.692392 0
0  6.103998 6.722912 2.721531  -0.013159 -0.998753 -0.048150  0.909714 0.349147 0
0  6.055654 6.564986 6.010544  -0.013159 -0.998753 -0.048150  1.000000 0.350362 0
phys
0  5.945606 -5.723678 3.051227  0.012801 0.999825 -0.013646  0.815523 0.692400 0
0  -6.505099 -5.563250 3.126126  0.012801 0.999825 -0.013646  0.815523 0.349147 0
0  -6.416334 -5.517718 6.545403  0.012801 0.999825 -0.013646  0.909714 0.351011 0
phys
0  6.103998 6.722912 2.721531  -0.999918 0.012757 0.001220  0.200939 0.693861 0
0  5.945606 -5.723678 3.051227  -0.999918 0.012757 0.001220  0.200939 0.350609 0
0  5.950373 -5.677064 6.471010  -0.999918 0.012757 0.001220  0.295090 0.349404 0
phys
0  -6.505099 -5.563250 3.126126  0.997335 -0.010780 0.072162  0.969021 0.001270 0
0  -6.346707 6.883340 2.796429  0.997335 -0.010780 0.072162  0.969021 0.344516 0
0  -6.580471 6.712600 6.001731  0.997335 -0.010780 0.072162  0.880590 0.337389 0
phys
0  -6.580471 6.712600 6.001731  0.000258 -0.037589 -0.999293  0.337713 0.000000 0
0  6.055654 6.564986 6.010544  0.000258 -0.037589 -0.999293  0.337713 0.348351 0
0  5.950373 -5.677064 6.471010  0.000258 -0.037589 -0.999293  0.000000 0.349404 0
end
